<svg id="mermaid-1602158405730" width="100%" xmlns="http://www.w3.org/2000/svg" xmlns:xlink="http://www.w3.org/1999/xlink" height="514" style="max-width: 614px;" viewBox="-20 -20 614 514"><style>#mermaid-1602158405730{font-family:"trebuchet ms",verdana,arial;font-size:16px;fill:#333;}#mermaid-1602158405730 .error-icon{fill:#552222;}#mermaid-1602158405730 .error-text{fill:#552222;stroke:#552222;}#mermaid-1602158405730 .edge-thickness-normal{stroke-width:2px;}#mermaid-1602158405730 .edge-thickness-thick{stroke-width:3.5px;}#mermaid-1602158405730 .edge-pattern-solid{stroke-dasharray:0;}#mermaid-1602158405730 .edge-pattern-dashed{stroke-dasharray:3;}#mermaid-1602158405730 .edge-pattern-dotted{stroke-dasharray:2;}#mermaid-1602158405730 .marker{fill:#333333;}#mermaid-1602158405730 .marker.cross{stroke:#333333;}#mermaid-1602158405730 svg{font-family:"trebuchet ms",verdana,arial;font-size:16px;}#mermaid-1602158405730 g.classGroup text{fill:#9370DB;fill:#131300;stroke:none;font-family:"trebuchet ms",verdana,arial;font-size:10px;}#mermaid-1602158405730 g.classGroup text .title{font-weight:bolder;}#mermaid-1602158405730 .classTitle{font-weight:bolder;}#mermaid-1602158405730 .node rect,#mermaid-1602158405730 .node circle,#mermaid-1602158405730 .node ellipse,#mermaid-1602158405730 .node polygon,#mermaid-1602158405730 .node path{fill:#ECECFF;stroke:#9370DB;stroke-width:1px;}#mermaid-1602158405730 .divider{stroke:#9370DB;stroke:1;}#mermaid-1602158405730 g.clickable{cursor:pointer;}#mermaid-1602158405730 g.classGroup rect{fill:#ECECFF;stroke:#9370DB;}#mermaid-1602158405730 g.classGroup line{stroke:#9370DB;stroke-width:1;}#mermaid-1602158405730 .classLabel .box{stroke:none;stroke-width:0;fill:#ECECFF;opacity:0.5;}#mermaid-1602158405730 .classLabel .label{fill:#9370DB;font-size:10px;}#mermaid-1602158405730 .relation{stroke:#333333;stroke-width:1;fill:none;}#mermaid-1602158405730 .dashed-line{stroke-dasharray:3;}#mermaid-1602158405730 #compositionStart,#mermaid-1602158405730 .composition{fill:#333333 !important;stroke:#333333 !important;stroke-width:1;}#mermaid-1602158405730 #compositionEnd,#mermaid-1602158405730 .composition{fill:#333333 !important;stroke:#333333 !important;stroke-width:1;}#mermaid-1602158405730 #dependencyStart,#mermaid-1602158405730 .dependency{fill:#333333 !important;stroke:#333333 !important;stroke-width:1;}#mermaid-1602158405730 #dependencyStart,#mermaid-1602158405730 .dependency{fill:#333333 !important;stroke:#333333 !important;stroke-width:1;}#mermaid-1602158405730 #extensionStart,#mermaid-1602158405730 .extension{fill:#333333 !important;stroke:#333333 !important;stroke-width:1;}#mermaid-1602158405730 #extensionEnd,#mermaid-1602158405730 .extension{fill:#333333 !important;stroke:#333333 !important;stroke-width:1;}#mermaid-1602158405730 #aggregationStart,#mermaid-1602158405730 .aggregation{fill:#ECECFF !important;stroke:#333333 !important;stroke-width:1;}#mermaid-1602158405730 #aggregationEnd,#mermaid-1602158405730 .aggregation{fill:#ECECFF !important;stroke:#333333 !important;stroke-width:1;}#mermaid-1602158405730 .edgeTerminals{font-size:11px;}#mermaid-1602158405730:root{--mermaid-font-family:"trebuchet ms",verdana,arial;}#mermaid-1602158405730 class{fill:apa;}</style><g></g><defs><marker id="extensionStart" class="extension" refX="0" refY="7" markerWidth="190" markerHeight="240" orient="auto"><path d="M 1,7 L18,13 V 1 Z"></path></marker></defs><defs><marker id="extensionEnd" refX="19" refY="7" markerWidth="20" markerHeight="28" orient="auto"><path d="M 1,1 V 13 L18,7 Z"></path></marker></defs><defs><marker id="compositionStart" class="extension" refX="0" refY="7" markerWidth="190" markerHeight="240" orient="auto"><path d="M 18,7 L9,13 L1,7 L9,1 Z"></path></marker></defs><defs><marker id="compositionEnd" refX="19" refY="7" markerWidth="20" markerHeight="28" orient="auto"><path d="M 18,7 L9,13 L1,7 L9,1 Z"></path></marker></defs><defs><marker id="aggregationStart" class="extension" refX="0" refY="7" markerWidth="190" markerHeight="240" orient="auto"><path d="M 18,7 L9,13 L1,7 L9,1 Z"></path></marker></defs><defs><marker id="aggregationEnd" refX="19" refY="7" markerWidth="20" markerHeight="28" orient="auto"><path d="M 18,7 L9,13 L1,7 L9,1 Z"></path></marker></defs><defs><marker id="dependencyStart" class="extension" refX="0" refY="7" markerWidth="190" markerHeight="240" orient="auto"><path d="M 5,7 L9,13 L1,7 L9,1 Z"></path></marker></defs><defs><marker id="dependencyEnd" refX="19" refY="7" markerWidth="20" markerHeight="28" orient="auto"><path d="M 18,7 L9,13 L14,7 L9,1 Z"></path></marker></defs><g id="classid-LMTRegister-8411" class="classGroup" transform="translate(199.5,0 )"><rect x="0" y="0" width="145" height="61" class=" "></rect><text y="15" x="0"><tspan class="title" x="42.5">LMTRegister</tspan></text><line x1="0" y1="21" y2="21" x2="145"></line><text x="5" y="31" fill="white" class="classText"><tspan x="5">+PublishMetadata: Metadata</tspan><tspan x="5" dy="10">+LmtTerms: terms</tspan><tspan x="5" dy="10">+LmtGroups: groups</tspan></text><line x1="0" y1="57" y2="57" x2="145"></line><text x="5" y="72" fill="white" class="classText"></text></g><g id="classid-PublishMetadata-8412" class="classGroup" transform="translate(5,111 )"><rect x="0" y="0" width="113" height="51" class=" "></rect><text y="15" x="0"><tspan class="title" x="18">PublishMetadata</tspan></text><line x1="0" y1="21" y2="21" x2="113"></line><text x="5" y="31" fill="white" class="classText"><tspan x="5">+String: version</tspan><tspan x="5" dy="10">+Dates: DatesISO8601</tspan></text><line x1="0" y1="47" y2="47" x2="113"></line><text x="5" y="62" fill="white" class="classText"></text></g><g id="classid-Dates-8413" class="classGroup" transform="translate(0,262 )"><rect x="0" y="0" width="123" height="51" class=" "></rect><text y="15" x="0"><tspan class="title" x="49">Dates</tspan></text><line x1="0" y1="21" y2="21" x2="123"></line><text x="5" y="31" fill="white" class="classText"><tspan x="5">+ISO8601String: release</tspan><tspan x="5" dy="10">+ISO8601String: publish</tspan></text><line x1="0" y1="47" y2="47" x2="123"></line><text x="5" y="62" fill="white" class="classText"></text></g><g id="classid-LmtTerms-8414" class="classGroup" transform="translate(226,116 )"><rect x="0" y="0" width="92" height="41" class=" "></rect><text y="15" x="0"><tspan class="title" x="22">LmtTerms</tspan></text><line x1="0" y1="21" y2="21" x2="92"></line><text x="5" y="31" fill="white" class="classText"><tspan x="5">+LmtTerm: term</tspan></text><line x1="0" y1="37" y2="37" x2="92"></line><text x="5" y="52" fill="white" class="classText"></text></g><g id="classid-LmtGroups-8415" class="classGroup" transform="translate(447,116 )"><rect x="0" y="0" width="101" height="41" class=" "></rect><text y="15" x="0"><tspan class="title" x="24">LmtGroups</tspan></text><line x1="0" y1="21" y2="21" x2="101"></line><text x="5" y="31" fill="white" class="classText"><tspan x="5">+LmtGroup: group</tspan></text><line x1="0" y1="37" y2="37" x2="101"></line><text x="5" y="52" fill="white" class="classText"></text></g><g id="classid-LmtTerm-8416" class="classGroup" transform="translate(173,212 )"><rect x="0" y="0" width="198" height="151" class=" "></rect><text y="15" x="0"><tspan class="title" x="77">LmtTerm</tspan></text><line x1="0" y1="21" y2="21" x2="198"></line><text x="5" y="31" fill="white" class="classText"><tspan x="5">+String: id</tspan><tspan x="5" dy="10">+String: name</tspan><tspan x="5" dy="10">+String: code</tspan><tspan x="5" dy="10">+String: long_description_1</tspan><tspan x="5" dy="10">+String: audio_language_tag</tspan><tspan x="5" dy="10">+String: audio_language_diaplay_name_1</tspan><tspan x="5" dy="10">+String: audio_language_diaplay_name_2</tspan><tspan x="5" dy="10">+String: visual_language_tag_1</tspan><tspan x="5" dy="10">+String: visual_language_tag_2</tspan><tspan x="5" dy="10">+String: visual_language_diaplay_name_1</tspan><tspan x="5" dy="10">+String: visual_language_diaplay_name_2</tspan><tspan x="5" dy="10">+String: language_group_code</tspan></text><line x1="0" y1="147" y2="147" x2="198"></line><text x="5" y="162" fill="white" class="classText"></text></g><g id="classid-LmtGroup-8417" class="classGroup" transform="translate(421,252 )"><rect x="0" y="0" width="153" height="71" class=" "></rect><text y="15" x="0"><tspan class="title" x="52">LmtGroup</tspan></text><line x1="0" y1="21" y2="21" x2="153"></line><text x="5" y="31" fill="white" class="classText"><tspan x="5">+String: language_group_name</tspan><tspan x="5" dy="10">+String: language_group_tag</tspan><tspan x="5" dy="10">+String: language_group_code</tspan><tspan x="5" dy="10">+GroupMember: member</tspan></text><line x1="0" y1="67" y2="67" x2="153"></line><text x="5" y="82" fill="white" class="classText"></text></g><g id="classid-GroupMember-8418" class="classGroup" transform="translate(426.5,413 )"><rect x="0" y="0" width="142" height="61" class=" "></rect><text y="15" x="0"><tspan class="title" x="36">GroupMember</tspan></text><line x1="0" y1="21" y2="21" x2="142"></line><text x="5" y="31" fill="white" class="classText"><tspan x="5">+String: audio_language_tag</tspan><tspan x="5" dy="10">+String: relationType</tspan><tspan x="5" dy="10">+String: relationWeight</tspan></text><line x1="0" y1="57" y2="57" x2="142"></line><text x="5" y="72" fill="white" class="classText"></text></g><path d="M199.5,49.61520190023753L176.5,55.679334916864605C153.5,61.743467933491694,107.5,73.87173396674585,84.5,84.10253365003959C61.5,94.33333333333333,61.5,102.66666666666667,61.5,106.83333333333333L61.5,111" id="edge3978" class="relation" marker-start="url(#compositionStart)"></path><g class="cardinality"><text class="type1" x="184.86360225096502" y="43.13246629464298" fill="black" font-size="6">1</text></g><g class="cardinality"><text class="type2" x="66.5" y="98.5" fill="black" font-size="6">1</text></g><path d="M61.5,162L61.5,166.16666666666666C61.5,170.33333333333334,61.5,178.66666666666666,61.5,195.33333333333334C61.5,212,61.5,237,61.5,249.5L61.5,262" id="edge3979" class="relation" marker-start="url(#compositionStart)"></path><g class="cardinality"><text class="type1" x="51.5" y="174.5" fill="black" font-size="6">1</text></g><g class="cardinality"><text class="type2" x="66.5" y="249.5" fill="black" font-size="6">1</text></g><path d="M272,61L272,65.16666666666667C272,69.33333333333333,272,77.66666666666667,272,86.83333333333333C272,96,272,106,272,111L272,116" id="edge3980" class="relation" marker-start="url(#compositionStart)"></path><g class="cardinality"><text class="type1" x="262" y="73.5" fill="black" font-size="6">1</text></g><g class="cardinality"><text class="type2" x="277" y="103.5" fill="black" font-size="6">1</text></g><path d="M344.5,48.34368070953437L370,54.61973392461198C395.5,60.89578713968958,446.5,73.4478935698448,472,84.7239467849224C497.5,96,497.5,106,497.5,111L497.5,116" id="edge3981" class="relation" marker-start="url(#compositionStart)"></path><g class="cardinality"><text class="type1" x="354.24790392079046" y="61.041254066323326" fill="black" font-size="6">1</text></g><g class="cardinality"><text class="type2" x="502.5" y="103.5" fill="black" font-size="6">1</text></g><path d="M272,157L272,162C272,167,272,177,272,186.16666666666666C272,195.33333333333334,272,203.66666666666666,272,207.83333333333334L272,212" id="edge3982" class="relation" marker-start="url(#compositionStart)"></path><g class="cardinality"><text class="type2" x="277" y="199.5" fill="black" font-size="6">1..*</text></g><path d="M497.5,157L497.5,162C497.5,167,497.5,177,497.5,192.83333333333334C497.5,208.66666666666666,497.5,230.33333333333334,497.5,241.16666666666666L497.5,252" id="edge3983" class="relation" marker-start="url(#compositionStart)"></path><g class="cardinality"><text class="type2" x="502.5" y="239.5" fill="black" font-size="6">1..*</text></g><path d="M497.5,323L497.5,333.8333333333333C497.5,344.6666666666667,497.5,366.3333333333333,497.5,381.3333333333333C497.5,396.3333333333333,497.5,404.6666666666667,497.5,408.8333333333333L497.5,413" id="edge3984" class="relation" marker-start="url(#compositionStart)"></path><g class="cardinality"><text class="type2" x="502.5" y="400.5" fill="black" font-size="6">1..*</text></g></svg>